<svg width="256" height="256" viewBox="0 0 256 256" xmlns="http://www.w3.org/2000/svg">

 <g>
  <title>Layer 1</title>
  <path id="svg_1" d="m233.46,97.46a36,36 0 0 0 -50.92,-50.92l0,0a36.18,36.18 0 0 0 -4.12,5l-22.54,-6.14a36,36 0 0 0 -61.34,-22.86l0,0a36.07,36.07 0 0 0 -7.79,39.24l-29.55,26.6a36.06,36.06 0 0 0 -42.66,6.16l0,0a36,36 0 0 0 45.73,55.2l65.27,47.87a36,36 0 1 0 59.92,-15.07a37.69,37.69 0 0 0 -2.85,-2.55l25.39,-71.99a35.87,35.87 0 0 0 25.46,-10.54zm-93.73,80.8l-65.27,-47.87a36.19,36.19 0 0 0 -1.21,-24.17l29.55,-26.6a35.92,35.92 0 0 0 46.78,-11.11l22.54,6.14a35.88,35.88 0 0 0 10.42,22.81a37.69,37.69 0 0 0 2.85,2.55l-25.39,71.99a35.89,35.89 0 0 0 -20.27,6.26zm76.76,-114.75a12,12 0 1 1 -17,0l0,0a12,12 0 0 1 17,0zm-105,-24a12,12 0 1 1 0,17a12,12 0 0 1 0,-17zm-80,89a12,12 0 0 1 0,-17l0,0a12,12 0 1 1 0,17zm137,88a12,12 0 0 1 -17,-17l0,0a12,12 0 0 1 17,17z"/>
  <path stroke="#ffff00" id="svg_4" d="m164.87947,139.6626l-8.68503,-16.49067c-2.61851,-4.97024 -6.90143,-13.10693 -9.51995,-18.07813l-8.68422,-16.48967c-2.6211,-4.97316 -6.90403,-4.97316 -9.52166,0l-8.68246,16.48967c-2.61851,4.9712 -6.90404,13.10978 -9.52168,18.07813l-8.68335,16.49067c-2.6185,4.97504 -0.47528,9.04145 4.76085,9.04145l53.77146,0c5.24136,0 7.38193,-4.06641 4.76604,-9.04145l0,0zm-29.17008,2.55288l-5.15107,0l0,-5.42216l5.15107,0l0,5.42216zm-0.24817,-9.41741l-4.65034,0l-0.46215,-23.1994l5.53339,0l-0.42091,23.1994l0,0z" fill="#ffff00"/>
 </g>
</svg>