<svg width="256" height="256" viewBox="0 0 256 256" xmlns="http://www.w3.org/2000/svg">

 <g>
  <title>Layer 1</title>
  <path id="svg_1" d="m233.46,97.46a36,36 0 0 0 -50.92,-50.92l0,0a36.18,36.18 0 0 0 -4.12,5l-22.54,-6.14a36,36 0 0 0 -61.34,-22.86l0,0a36.07,36.07 0 0 0 -7.79,39.24l-29.55,26.6a36.06,36.06 0 0 0 -42.66,6.16l0,0a36,36 0 0 0 45.73,55.2l65.27,47.87a36,36 0 1 0 59.92,-15.07a37.69,37.69 0 0 0 -2.85,-2.55l25.39,-71.99a35.87,35.87 0 0 0 25.46,-10.54zm-93.73,80.8l-65.27,-47.87a36.19,36.19 0 0 0 -1.21,-24.17l29.55,-26.6a35.92,35.92 0 0 0 46.78,-11.11l22.54,6.14a35.88,35.88 0 0 0 10.42,22.81a37.69,37.69 0 0 0 2.85,2.55l-25.39,71.99a35.89,35.89 0 0 0 -20.27,6.26zm76.76,-114.75a12,12 0 1 1 -17,0l0,0a12,12 0 0 1 17,0zm-105,-24a12,12 0 1 1 0,17a12,12 0 0 1 0,-17zm-80,89a12,12 0 0 1 0,-17l0,0a12,12 0 1 1 0,17zm137,88a12,12 0 0 1 -17,-17l0,0a12,12 0 0 1 17,17z"/>
  <path stroke="#ff0000" stroke-width="5" id="svg_3" d="m96.40499,119.95745l0,0c0,-15.4639 14.77462,-27.99994 32.99998,-27.99994l0,0c8.75226,0 17.14603,2.95 23.33453,8.20102c6.18876,5.25103 9.66551,12.37297 9.66551,19.79892l0,0c0,15.46409 -14.77452,28.00005 -33.00004,28.00005l0,0c-18.22535,0 -32.99998,-12.53596 -32.99998,-28.00005l0,0zm53.2875,12.52578l0,0c7.26551,-8.47214 6.18551,-20.17022 -2.54625,-27.57888c-8.73176,-7.40873 -22.51878,-8.32509 -32.50355,-2.16035l35.0498,29.73924zm-40.57486,-25.0513c-7.26556,8.47209 -6.18559,20.17017 2.54613,27.57873c8.73169,7.40877 22.51871,8.32513 32.50347,2.16046l-35.0496,-29.73919l0,0z" fill="#ff0000"/>
 </g>
</svg>