<svg width="256" height="256" viewBox="0 0 256 256" xmlns="http://www.w3.org/2000/svg">
 <g>
  <title>Layer 1</title>
  <path fill="#000000" stroke-width="8" stroke="#000000" id="svg_3" d="m7.425,43.4675l0,0c0,-19.6061 15.89389,-35.5 35.5,-35.5l0,0c9.41518,0 18.44475,3.74017 25.10228,10.39771c6.65754,6.65754 10.39771,15.6871 10.39771,25.10229l0,0c0,19.6061 -15.89389,35.5 -35.5,35.5l0,0c-19.6061,0 -35.5,-15.89389 -35.5,-35.5zm17.75,0l0,0c0,9.80305 7.94695,17.75 17.75,17.75c9.80305,0 17.75,-7.94695 17.75,-17.75c0,-9.80305 -7.94695,-17.75 -17.75,-17.75l0,0c-9.80305,0 -17.75,7.94695 -17.75,17.75z"/>
  <path fill="#000000" stroke-width="8" stroke="#000000" id="svg_4" d="m173.20756,214.33707l0,0c0,-19.6061 15.89389,-35.5 35.49999,-35.5l0,0c9.41518,0 18.44475,3.74017 25.10229,10.39771c6.65754,6.65754 10.39771,15.6871 10.39771,25.10229l0,0c0,19.6061 -15.89389,35.5 -35.5,35.5l0,0c-19.6061,0 -35.49999,-15.8939 -35.49999,-35.5zm17.75,0l0,0c0,9.80305 7.94695,17.75 17.74999,17.75c9.80306,0 17.75,-7.94695 17.75,-17.75c0,-9.80305 -7.94695,-17.75 -17.75,-17.75l0,0c-9.80304,0 -17.74999,7.94695 -17.74999,17.75z"/>
  <path fill="#000000" stroke-width="8" stroke="#000000" id="svg_13" d="m163.94781,66.94592l0,0c0,-19.6061 15.89389,-35.5 35.49999,-35.5l0,0c9.41518,0 18.44475,3.74017 25.10229,10.39771c6.65754,6.65754 10.39771,15.6871 10.39771,25.10229l0,0c0,19.6061 -15.89389,35.5 -35.5,35.5l0,0c-19.6061,0 -35.49999,-15.8939 -35.49999,-35.5zm17.75,0l0,0c0,9.80305 7.94695,17.75 17.74999,17.75c9.80306,0 17.75,-7.94695 17.75,-17.75c0,-9.80305 -7.94695,-17.75 -17.75,-17.75l0,0c-9.80304,0 -17.74999,7.94695 -17.74999,17.75z"/>
  <path fill="#000000" stroke-width="8" stroke="#000000" id="svg_14" d="m10.90328,211.29474l0,0c0,-19.6061 15.89389,-35.5 35.49999,-35.5l0,0c9.41518,0 18.44475,3.74017 25.10229,10.39771c6.65754,6.65754 10.39771,15.6871 10.39771,25.10229l0,0c0,19.6061 -15.89389,35.5 -35.5,35.5l0,0c-19.6061,0 -35.49999,-15.8939 -35.49999,-35.5zm17.75,0l0,0c0,9.80305 7.94695,17.75 17.74999,17.75c9.80306,0 17.75,-7.94695 17.75,-17.75c0,-9.80305 -7.94695,-17.75 -17.75,-17.75l0,0c-9.80304,0 -17.74999,7.94695 -17.74999,17.75z"/>
  <path stroke="#000000" id="svg_15" d="m38.25136,122.06593l7.39135,-25.21757l7.39135,25.21757l-14.78271,0z" stroke-width="8" fill="#000000"/>
  <path transform="rotate(98.7214 134.339 59.8916)" stroke="#000000" id="svg_16" d="m126.94762,72.50037l7.39136,-25.21757l7.39135,25.21757l-14.78271,0z" stroke-width="8" fill="#000000"/>
  <path transform="rotate(175.403 206.513 147.718)" stroke="#000000" id="svg_17" d="m199.12203,160.32706l7.39136,-25.21757l7.39135,25.21757l-14.78271,0z" stroke-width="8" fill="#000000"/>
  <path transform="rotate(-89.9969 115.208 213.806)" stroke="#000000" id="svg_18" d="m107.81705,226.41447l7.39136,-25.21757l7.39135,25.21757l-14.78271,0z" stroke-width="8" fill="#000000"/>
  <line id="svg_20" y2="97.21894" x2="203.65271" y1="138.08878" x1="206.26142" stroke-width="8" stroke="#000000" fill="none"/>
  <line id="svg_21" y2="48.52295" x2="63.65175" y1="57.21866" x1="123.65216" stroke-width="8" stroke="#000000" fill="none"/>
  <line id="svg_22" y2="178.95863" x2="45.39075" y1="118.95822" x1="46.26032" stroke-width="8" stroke="#000000" fill="none"/>
  <line id="svg_23" y2="215.48062" x2="180.17428" y1="213.74148" x1="125.3913" stroke-width="8" stroke="#000000" fill="none"/>
 </g>
</svg>