<svg width="256" height="256" viewBox="0 0 256 256" xmlns="http://www.w3.org/2000/svg">
 <g>
  <title>Layer 1</title>
  <ellipse stroke-width="10" stroke="#000000" ry="93" rx="92.5" id="svg_2" cy="131.5" cx="127.87839" fill="#ffffff"/>
  <path id="svg_3" d="m180.035,77.51249l0,0c0,-13.25483 10.74516,-24 23.99999,-24l0,0c6.36519,0 12.46969,2.52856 16.97055,7.02944c4.50087,4.50088 7.02944,10.60537 7.02944,16.97057l0,0c0,13.25483 -10.74516,24 -23.99999,24l0,0c-13.25483,0 -23.99999,-10.74517 -23.99999,-24zm12,0l0,0c0,6.62742 5.37259,12 12,12c6.62742,0 12,-5.37259 12,-12c0,-6.62742 -5.37258,-12 -12,-12l0,0c-6.62741,0 -12,5.37259 -12,12z" stroke-width="8" stroke="#000000" fill="#000000"/>
  <path id="svg_5" d="m122.035,223.51249l0,0c0,-13.25483 10.74516,-24 23.99999,-24l0,0c6.36519,0 12.46969,2.52856 16.97055,7.02943c4.50088,4.50088 7.02944,10.60537 7.02944,16.97057l0,0c0,13.25483 -10.74516,24 -23.99999,24l0,0c-13.25483,0 -23.99999,-10.74517 -23.99999,-24zm11.99999,0l0,0c0,6.62742 5.37259,12 12,12c6.62742,0 12,-5.37258 12,-12c0,-6.62741 -5.37259,-12 -12,-12l0,0c-6.62741,0 -12,5.37259 -12,12z" stroke-width="8" stroke="#000000" fill="#000000"/>
  <path id="svg_6" d="m17.035,104.51249l0,0c0,-13.25483 10.74516,-24 23.99999,-24l0,0c6.36519,0 12.46969,2.52856 16.97055,7.02943c4.50088,4.50088 7.02944,10.60537 7.02944,16.97057l0,0c0,13.25483 -10.74516,24 -23.99999,24l0,0c-13.25483,0 -23.99999,-10.74517 -23.99999,-24zm11.99999,0l0,0c0,6.62742 5.37259,12 12,12c6.62742,0 12,-5.37258 12,-12c0,-6.62741 -5.37259,-12 -12,-12l0,0c-6.62741,0 -12,5.37259 -12,12z" stroke-width="8" stroke="#000000" fill="#000000"/>
  <ellipse ry="13" rx="13" id="svg_7" cy="222" cx="146" stroke-width="12" stroke="#000000" fill="#ffffff"/>
  <ellipse ry="13" rx="13" id="svg_8" cy="104" cx="41" stroke-width="12" stroke="#000000" fill="#ffffff"/>
  <ellipse ry="13" rx="13" id="svg_9" cy="77" cx="204" stroke-width="12" stroke="#000000" fill="#ffffff"/>
  <path transform="rotate(-138.422 195.422 187.768)" stroke="#000000" id="svg_10" d="m183.03007,207.30862l12.39188,-39.0812l12.39188,39.0812l-24.78376,0z" stroke-width="20" fill="#ffffff"/>
  <path transform="rotate(-22.6658 46.7742 163.984)" stroke="#000000" id="svg_12" d="m34.3823,183.52497l12.39188,-39.0812l12.39188,39.0812l-24.78376,0z" stroke-width="20" fill="#ffffff"/>
  <path transform="rotate(106.051 156.503 46.6878)" stroke="#000000" id="svg_13" d="m144.11138,66.22837l12.39188,-39.0812l12.39188,39.0812l-24.78376,0z" stroke-width="20" fill="#ffffff"/>
 </g>

</svg>