<svg width="99px" height="99px" viewBox="0 0 99 99" xmlns="http://www.w3.org/2000/svg">
 <g id="Layer_1">
  <title>Layer 1</title>
  <ellipse stroke="#000" stroke-width="5" ry="7.00757" rx="7.00757" id="svg_55" cy="57.19697" cx="11.55304" fill="none"/>
  <ellipse stroke="#000" stroke-width="2" ry="7.00757" rx="7.00757" id="svg_60" cy="10.22729" cx="11.17425" fill="none"/>
  <line stroke-dasharray="2,2" id="svg_62" y2="17.53161" x2="10.98486" y1="49.05303" x1="10.98486" stroke-width="2" stroke="#000" fill="none"/>
  <ellipse stroke="#000" stroke-width="5" ry="7.00757" rx="7.00757" id="svg_63" cy="89.39392" cx="35.41667" fill="none"/>
  <ellipse stroke="#000" stroke-width="2" ry="7.00757" rx="7.00757" id="svg_64" cy="42.42424" cx="35.03788" fill="none"/>
  <line stroke-dasharray="2,2" id="svg_65" y2="49.72856" x2="34.84848" y1="81.24999" x1="34.84848" stroke-width="2" stroke="#000" fill="none"/>
  <ellipse stroke="#000" stroke-width="5" ry="7.00757" rx="7.00757" id="svg_66" cy="69.69696" cx="90.34089" fill="none"/>
  <ellipse stroke="#000" stroke-width="2" ry="7.00757" rx="7.00757" id="svg_67" cy="22.72728" cx="89.9621" fill="none"/>
  <line stroke-dasharray="2,2" id="svg_68" y2="30.0316" x2="89.77271" y1="61.55303" x1="89.77271" stroke-width="2" stroke="#000" fill="none"/>
  <line id="svg_69" y2="11.55304" x2="18.18182" y1="21.40153" x1="82.57574" stroke-dasharray="2,2" stroke-width="2" stroke="#000" fill="none"/>
  <line id="svg_70" y2="26.70455" x2="84.46968" y1="41.09849" x1="42.42424" stroke-dasharray="2,2" stroke-width="2" stroke="#000" fill="none"/>
  <line id="svg_71" y2="36.93182" x2="30.30303" y1="16.0985" x1="15.53031" stroke-dasharray="2,2" stroke-width="2" stroke="#000" fill="none"/>
  <line id="svg_72" y2="83.14393" x2="29.92424" y1="64.58333" x1="16.28788" stroke-width="5" stroke="#000" fill="none"/>
  <line id="svg_74" y2="72.15908" x2="83.7121" y1="86.17423" x1="41.66666" stroke-width="5" stroke="#000" fill="none"/>
  <line id="svg_75" y2="68.37121" x2="84.09089" y1="59.2803" x1="18.9394" stroke-width="5" stroke="#000" fill="none"/>
 </g>
</svg>