<svg xmlns="http://www.w3.org/2000/svg" width="24" height="24" viewBox="0 0 24 24" version="1.0"><path fill="#010101" d="M6.818 11.629a.35.35 0 0 1-.244-.099c-.571-.556-.89-1.301-.895-2.098s.302-1.544.864-2.105c1.131-1.165 2.991-1.207 4.144-.088a.35.35 0 1 1-.488.502c-.875-.85-2.291-.813-3.157.078-.433.431-.666 1.002-.662 1.609s.246 1.176.683 1.6a.35.35 0 0 1-.245.601zM8.66 5.748a.35.35 0 0 1-.35-.35V4.38a.35.35 0 1 1 .7 0v1.018a.35.35 0 0 1-.35.35zM4.553 9.848H3.506a.35.35 0 0 1 0-.7h1.047a.35.35 0 0 1 0 .7zM5.742 6.963a.348.348 0 0 1-.252-.107l-.707-.735a.35.35 0 0 1 .504-.485l.707.735a.349.349 0 0 1-.252.592zM5.035 13.467a.35.35 0 0 1-.247-.598l.707-.707a.35.35 0 1 1 .494.495l-.707.707a.344.344 0 0 1-.247.103zM11.547 6.963a.35.35 0 0 1-.247-.598l.736-.735a.35.35 0 1 1 .494.495l-.736.735a.344.344 0 0 1-.247.103z"/><path fill="#010101" d="M12.539 15.587H8.377a.341.341 0 0 1-.158-.041c-1.375-.173-2.4-1.299-2.4-2.656 0-1.487 1.224-2.697 2.729-2.697h.106c.079-1.978 1.702-3.563 3.687-3.563 1.574 0 2.982 1.027 3.503 2.556a.349.349 0 0 1-.218.444.346.346 0 0 1-.444-.218c-.425-1.245-1.566-2.081-2.841-2.081-1.648 0-2.99 1.352-2.99 3.014v.227a.351.351 0 0 1-.418.344 1.766 1.766 0 0 0-.385-.021c-1.119 0-2.029.896-2.029 1.997 0 1.025.801 1.872 1.862 1.97a.331.331 0 0 1 .105.027h7.679c.329-.022.667-.14.928-.329a.35.35 0 1 1 .41.567 2.5 2.5 0 0 1-1.314.461l-3.65-.001zM8.971 18.104a.35.35 0 0 1-.35-.35v-1.301a.35.35 0 1 1 .7 0v1.301a.351.351 0 0 1-.35.35zM10.387 20.592a.35.35 0 0 1-.35-.35V18.97a.35.35 0 1 1 .7 0v1.272a.35.35 0 0 1-.35.35zM11.803 18.104a.35.35 0 0 1-.35-.35v-1.301a.35.35 0 1 1 .7 0v1.301a.351.351 0 0 1-.35.35zM13.246 20.592a.35.35 0 0 1-.35-.35V18.97a.35.35 0 1 1 .7 0v1.272a.35.35 0 0 1-.35.35zM14.662 18.104a.35.35 0 0 1-.35-.35v-1.301a.35.35 0 1 1 .7 0v1.301a.35.35 0 0 1-.35.35zM16.078 20.592a.35.35 0 0 1-.35-.35V18.97a.35.35 0 1 1 .7 0v1.272a.35.35 0 0 1-.35.35z"/><path fill="#010101" d="M17.184 15.22c-1.552 0-2.814-1.273-2.814-2.838 0-.732.3-1.422.85-1.961V5.313c0-.881.858-1.905 1.965-1.905 1.09 0 1.936 1.024 1.936 1.905v5.108c.55.539.85 1.229.85 1.961-.002 1.565-1.251 2.838-2.787 2.838zm0-11.112c-.682 0-1.266.662-1.266 1.205v5.26a.35.35 0 0 1-.117.262c-.334.296-.732.805-.732 1.548 0 1.179.949 2.138 2.115 2.138 1.15 0 2.086-.959 2.086-2.138 0-.743-.398-1.251-.732-1.548a.349.349 0 0 1-.117-.262v-5.26c-.001-.543-.571-1.205-1.237-1.205z"/><path fill="#010101" d="M17.127 11.855a.35.35 0 0 1-.35-.35V8.027a.35.35 0 1 1 .7 0v3.478a.35.35 0 0 1-.35.35z"/><path fill="#010101" d="M17.154 13.637a1.228 1.228 0 1 1 .002-2.456 1.228 1.228 0 0 1-.002 2.456zm0-1.754c-.285 0-.527.241-.527.527s.242.527.527.527c.287 0 .529-.241.529-.527s-.242-.527-.529-.527zM20.496 9.848h-1.699a.35.35 0 0 1 0-.7h1.699a.35.35 0 0 1 0 .7zM20.496 8.264h-1.699a.35.35 0 0 1 0-.7h1.699a.35.35 0 0 1 0 .7zM20.496 6.596h-1.699a.35.35 0 0 1 0-.7h1.699a.35.35 0 0 1 0 .7z"/></svg>